# xmcd
#
# Track frame offsets:
#	150
#	7224
#	27877
#	59389
#	76682
#	96756
#	125252
#	153315
#	176108
#	190729
#
# Disc length: 2745 seconds
#
# Revision: 0
# Processed by: cddbd v1.5.2PL0 Copyright (c) Steve Scherf et al.
# Submitted via: audiograbber 1.83.01
#
DISCID=750ab70a
DTITLE=NRPS - 71-12-10 Fox Theatre, St Louis MO
DYEAR=1900
DGENRE=
TTITLE0=Sam Cutler Intro
TTITLE1=Workingman's Blues
TTITLE2=Portland Woman
TTITLE3=Rainbow
TTITLE4=I Don't Know You
TTITLE5=Henry
TTITLE6=Sailing Song
TTITLE7=Fair Chance To Know
TTITLE8=Truck Driving Man
TTITLE9=Whatcha Gonna Do
EXTD=
EXTT0=
EXTT1=
EXTT2=
EXTT3=
EXTT4=
EXTT5=
EXTT6=
EXTT7=
EXTT8=
EXTT9=
PLAYORDER=
